<svg xmlns="http://www.w3.org/2000/svg" viewBox="0 0 113 112.999"><defs><style>.a{fill:none;stroke:#fff;stroke-miterlimit:10;stroke-width:3px;}.b{fill:#fff;}</style></defs><g transform="translate(1.5 1.5)"><path class="a" d="M110.2,55.1A55,55,0,1,1,55.172.1,55.019,55.019,0,0,1,110.2,55.1Z" transform="translate(-0.2 -0.1)"/><g transform="translate(23.07 32.503)"><path class="b" d="M70.085,100.061h0a12.171,12.171,0,0,1-3.678-.595,12.045,12.045,0,0,1-8.167-13.629L52.4,83.944V73.452L99.94,58.2V99.249L80.9,93.138A11.944,11.944,0,0,1,70.085,100.061ZM54.077,82.754,60.242,84.7l-.216.757A10.433,10.433,0,0,0,66.949,97.9a10.62,10.62,0,0,0,3.191.487h0a10.385,10.385,0,0,0,9.627-6.6l.27-.7,18.334,5.9V60.417L54.077,74.641ZM70.031,96.275a7.762,7.762,0,0,1-2.488-.433,7.894,7.894,0,0,1-5.084-9.519l.216-.811,15.035,4.813-.325.811A7.884,7.884,0,0,1,70.031,96.275Zm-6.166-8.653a6.2,6.2,0,0,0,11.628,3.732Z" transform="translate(-46.289 -58.2)"/><path class="b" d="M41.1,97.015V84.9h.811a6.058,6.058,0,0,1,0,12.115Zm1.623-10.384v8.653a4.42,4.42,0,0,0,0-8.653Z" transform="translate(-41.1 -70.46)"/></g></g></svg>