<svg xmlns="http://www.w3.org/2000/svg" viewBox="0 0 283.494 95.167"><defs><style>.a,.b{fill:none;stroke:#fff;stroke-width:3px;}.a{stroke-miterlimit:10;}.c{fill:#fff;}</style></defs><g transform="translate(-274.5 -23.196)"><g transform="translate(276 24.696)"><path class="a" d="M15.766,78.945H1.5V1.5H78.945V15.766" transform="translate(-1.5 -1.5)"/><g transform="translate(17 17.167)"><rect class="b" width="75" height="75"/></g><g transform="translate(34.462 37.034)"><path class="c" d="M81.324,90.2l.524,1.4.524-1.4a14,14,0,0,1,.641-1.339L95.591,65.973q.349-.611.7-.7a4.338,4.338,0,0,1,1.048-.116h3.727v37.208H96.639V73.834c0-.408.058-.815.058-1.281L83.945,95.845A2.016,2.016,0,0,1,82.14,97.01h-.7a2.016,2.016,0,0,1-1.805-1.165L66.651,72.5a10.4,10.4,0,0,1,.116,1.339c0,.408.058.815.058,1.223v27.368H62.4V65.1h3.727a4.338,4.338,0,0,1,1.048.116c.233.058.466.349.7.7l12.869,23A8.573,8.573,0,0,1,81.324,90.2Z" transform="translate(-62.4 -65.1)"/></g></g><g transform="translate(389.42 61.205)"><path class="c" d="M216.342,93.559c.116-.291.233-.524.349-.815s.233-.524.349-.757l14.441-25.563a.9.9,0,0,1,.408-.408,1.623,1.623,0,0,1,.582-.058h1.863V102.7h-2.329V71.374a12.662,12.662,0,0,1,.058-1.456L217.623,95.6a1.119,1.119,0,0,1-1.048.7h-.408a1.245,1.245,0,0,1-1.048-.7L200.271,69.86a12.665,12.665,0,0,1,.058,1.456v31.327H198V65.9h1.805a1.623,1.623,0,0,1,.582.058.7.7,0,0,1,.408.408l14.848,25.563A8.1,8.1,0,0,1,216.342,93.559Z" transform="translate(-198 -64.91)"/><path class="c" d="M281.084,67.771a2.337,2.337,0,0,1-.175.873,1.59,1.59,0,0,1-.524.7,4.858,4.858,0,0,1-.7.466,2.271,2.271,0,0,1-1.747,0,2.094,2.094,0,0,1-.7-.466,2.436,2.436,0,0,1-.466-.7,2.271,2.271,0,0,1,0-1.747,3.3,3.3,0,0,1,.466-.757,2.437,2.437,0,0,1,.7-.466,2.271,2.271,0,0,1,1.747,0,2.094,2.094,0,0,1,.7.466,3.5,3.5,0,0,1,.524.757A1.944,1.944,0,0,1,281.084,67.771Zm-1.048,8.909v25.854H277.59V76.68Z" transform="translate(-230.832 -64.743)"/><path class="c" d="M298.2,110.261V84.408h1.339a.678.678,0,0,1,.757.641l.233,3.9a14.34,14.34,0,0,1,4.134-3.61A10.043,10.043,0,0,1,309.9,84a9.251,9.251,0,0,1,3.727.7,7.039,7.039,0,0,1,2.679,1.922,9.72,9.72,0,0,1,1.63,3.086,12.813,12.813,0,0,1,.524,4.076V110.32h-2.446V93.782a8.884,8.884,0,0,0-1.689-5.706c-1.106-1.4-2.795-2.038-5.066-2.038a9.035,9.035,0,0,0-4.717,1.339,14.214,14.214,0,0,0-3.9,3.61v19.39H298.2Z" transform="translate(-239.854 -72.471)"/><path class="c" d="M350.584,67.771a2.337,2.337,0,0,1-.175.873,1.59,1.59,0,0,1-.524.7,4.858,4.858,0,0,1-.7.466,2.271,2.271,0,0,1-1.747,0,2.094,2.094,0,0,1-.7-.466,2.436,2.436,0,0,1-.466-.7,2.271,2.271,0,0,1,0-1.747,3.3,3.3,0,0,1,.466-.757,2.436,2.436,0,0,1,.7-.466,2.271,2.271,0,0,1,1.747,0,2.094,2.094,0,0,1,.7.466,3.5,3.5,0,0,1,.524.757A1.944,1.944,0,0,1,350.584,67.771Zm-1.106,8.909v25.854h-2.446V76.68Z" transform="translate(-259.863 -64.743)"/><path class="c" d="M367.6,110.261V84.408h1.339a.678.678,0,0,1,.757.641l.233,3.727a17.7,17.7,0,0,1,1.63-1.922,10.829,10.829,0,0,1,1.805-1.514,8.663,8.663,0,0,1,2.1-.99A7.781,7.781,0,0,1,377.79,84a6.305,6.305,0,0,1,4.542,1.63,8.809,8.809,0,0,1,2.271,4.6,10.254,10.254,0,0,1,1.281-2.8,10.006,10.006,0,0,1,1.922-1.922,8.278,8.278,0,0,1,2.387-1.165,10.131,10.131,0,0,1,2.62-.349,9.033,9.033,0,0,1,3.435.641,6.974,6.974,0,0,1,2.62,1.863,7.466,7.466,0,0,1,1.63,3.086,13.141,13.141,0,0,1,.582,4.134v16.537h-2.387V93.724c0-2.5-.524-4.484-1.63-5.765a5.712,5.712,0,0,0-4.658-1.98,7.67,7.67,0,0,0-2.562.466,6.133,6.133,0,0,0-2.154,1.456,7.277,7.277,0,0,0-1.514,2.446,9.992,9.992,0,0,0-.582,3.377v16.537h-2.446V93.724a9.575,9.575,0,0,0-1.514-5.765,5.069,5.069,0,0,0-4.367-1.98,6.519,6.519,0,0,0-3.9,1.281,11,11,0,0,0-3.2,3.494v19.507H367.6Z" transform="translate(-268.843 -72.471)"/><path class="c" d="M454.035,110.261a.95.95,0,0,1-.99-.7l-.349-3.319a20.088,20.088,0,0,1-2.1,1.863,10.05,10.05,0,0,1-2.213,1.4,8.743,8.743,0,0,1-2.446.873,14.937,14.937,0,0,1-2.911.291,7.617,7.617,0,0,1-2.562-.408,5.532,5.532,0,0,1-2.213-1.223A6.161,6.161,0,0,1,436.682,107a6.857,6.857,0,0,1-.582-3.028,5.166,5.166,0,0,1,.932-3.028,7.752,7.752,0,0,1,2.911-2.446,21.1,21.1,0,0,1,5.124-1.689,44.619,44.619,0,0,1,7.512-.7V93.433a8.575,8.575,0,0,0-1.572-5.532,5.573,5.573,0,0,0-4.6-1.922,8.955,8.955,0,0,0-5.415,1.689,11.512,11.512,0,0,0-1.456,1.165,1.643,1.643,0,0,1-.99.524.839.839,0,0,1-.757-.466l-.466-.757a15.761,15.761,0,0,1,4.251-3.086A11.947,11.947,0,0,1,446.639,84a9.53,9.53,0,0,1,3.61.641,6.1,6.1,0,0,1,2.562,1.922,8.05,8.05,0,0,1,1.572,2.97,13.458,13.458,0,0,1,.524,3.9v16.828h-.873Zm-10.365-1.4a10.81,10.81,0,0,0,2.795-.349,10.247,10.247,0,0,0,2.329-.932,15.806,15.806,0,0,0,2.038-1.4c.641-.524,1.223-1.106,1.863-1.747V97.684a38.106,38.106,0,0,0-6.347.582,17.2,17.2,0,0,0-4.367,1.223,6.955,6.955,0,0,0-2.562,1.863,3.987,3.987,0,0,0-.815,2.446,5.459,5.459,0,0,0,.408,2.271,4.5,4.5,0,0,0,1.106,1.572,4.015,4.015,0,0,0,1.63.873A5.129,5.129,0,0,0,443.67,108.864Z" transform="translate(-297.456 -72.471)"/><path class="c" d="M485.746,64.2v37.791H483.3V64.2Z" transform="translate(-317.172 -64.2)"/></g></g></svg>