<svg xmlns="http://www.w3.org/2000/svg" viewBox="0 0 160 160"><defs><style>.a{fill:#2e393d;}.b{fill:#fff;}</style></defs><g transform="translate(0)"><path class="a" d="M591.6,80.1A80,80,0,1,1,511.64.1,80.011,80.011,0,0,1,591.6,80.1Z" transform="translate(-431.6 -0.1)"/><path class="b" d="M540.221,64.9a18.571,18.571,0,0,0-17.727,13.092,10.98,10.98,0,0,0-1.3-2.358A18.5,18.5,0,0,0,485.9,83.441a16.835,16.835,0,0,0,.813,5.367c2.114,12.279,23.664,28.868,36.35,42.042l.081-.081c13.58-16.67,33.666-30.088,34.886-42.042a18.9,18.9,0,0,0,.813-5.286A18.655,18.655,0,0,0,540.221,64.9Z" transform="translate(-443.043 -13.643)"/></g></svg>
