<svg xmlns="http://www.w3.org/2000/svg" viewBox="0 0 113 113.003"><defs><style>.a{fill:none;stroke:#fff;stroke-miterlimit:10;stroke-width:3px;}.b{fill:#fff;}</style></defs><g transform="translate(1.5 1.5)"><path class="a" d="M972.9,55.1a55,55,0,1,1-55-55A55.006,55.006,0,0,1,972.9,55.1Z" transform="translate(-862.9 -0.1)"/><g transform="translate(23.726 22.533)"><path class="b" d="M951.635,117.373a30.636,30.636,0,0,1,0-61.273A29.063,29.063,0,0,1,961.8,57.9l1.009.36-9.515,27.392h28.978v1.081A30.656,30.656,0,0,1,951.635,117.373Zm0-59.11a28.4,28.4,0,1,0,28.4,29.483h-29.77l9.8-28.113A27.914,27.914,0,0,0,951.635,58.263Z" transform="translate(-921 -54.37)"/><path class="b" d="M970,82.823,980.092,53.7l1.009.36a29.4,29.4,0,0,1,19.679,27.681v1.081Zm11.461-26.311L973.1,80.66h25.518a26.872,26.872,0,0,0-17.156-24.149Z" transform="translate(-934.679 -53.7)"/></g></g></svg>